# xmcd
#
# Track frame offsets: 
#        150
#        14384
#        27938
#        41229
#        54951
#        68713
#        82018
#        93270
#        106959
#        119416
#        131743
#        143699
#        156985
#        169646
#        182324
#        194626
#        208341
#        222057
#        234337
#        247684
#        261926
#        276605
#        290161
#        304113
#        317175
#        329359
#        339632
#
# Disc length: 4674 seconds
#
# Revision: 0
# Processed by: cddbd v1.5.2PL0 Copyright (c) Steve Scherf et al.
# Submitted via: ExactAudioCopyFreeDBPlugin 1.0
#
DISCID=9712401b
DTITLE=John Lee Hooker - Boogie Chillen CD1 (Compilation Blues Charact
DTITLE=ers)
DYEAR=1900
DGENRE=Blues
TTITLE0=Boogie chillen'
TTITLE1=Crawling king snake
TTITLE2=Hoogie boogie
TTITLE3=Black cat blues
TTITLE4=Heart trouble blues
TTITLE5=Wednesday evening blues
TTITLE6=Goin' on Highway 51
TTITLE7=Decoration Day blues
TTITLE8=Boogie chillen' #2
TTITLE9=Crying all night
TTITLE10=Strike blues
TTITLE11=One more time
TTITLE12=Turnin gray blues
TTITLE13=Give me your phone number
TTITLE14=If you need my lovin' baby
TTITLE15=I'm going away
TTITLE16=Tease me baby
TTITLE17=High priced woman
TTITLE18=Ground hog blues
TTITLE19=Turn over a new leaf (1952 blues)
TTITLE20=Sugar mama
TTITLE21=Love blues
TTITLE22=Worried life blues
TTITLE23=Rock house boogie
TTITLE24=Love money can't buy
TTITLE25=Sluttering blues
TTITLE26=Gonna boogie
EXTD=
EXTT0=
EXTT1=
EXTT2=
EXTT3=
EXTT4=
EXTT5=
EXTT6=
EXTT7=
EXTT8=
EXTT9=
EXTT10=
EXTT11=
EXTT12=
EXTT13=
EXTT14=
EXTT15=
EXTT16=
EXTT17=
EXTT18=
EXTT19=
EXTT20=
EXTT21=
EXTT22=
EXTT23=
EXTT24=
EXTT25=
EXTT26=
PLAYORDER=
